<?xml version="1.0" encoding="utf-8"?>
<!-- Generator: Adobe Illustrator 25.0.1, SVG Export Plug-In . SVG Version: 6.00 Build 0)  -->
<svg version="1.1" id="Layer_1" xmlns="http://www.w3.org/2000/svg" xmlns:xlink="http://www.w3.org/1999/xlink" x="0px" y="0px"
	 viewBox="0 0 1920 1080" style="enable-background:new 0 0 1920 1080;" xml:space="preserve">
<path d="M488.39,859.48c4.61,11.08,1.16,18.35-3.16,24.59c-4.35,6.29-9.45,12.92-15.82,16.75c-8.82,5.29-19.04,8.33-28.83,11.89
	c-7.01,2.55-13.88,1.3-19.62-3.49c-12.18-10.16-22.83-21.44-25.17-38.14c-0.36-2.58-0.99-5.14-1.16-7.73
	c-2.63-39.93-4.66-79.83,4.13-119.37c7.34-33.03,13.62-66.23,25.7-98.12c19.1-50.45,39.65-100.07,69.56-145.3
	c8.14-12.31,16.16-24.73,23.72-37.41c21.98-36.84,49.7-68.89,80.73-98.29c7.56-7.17,15.44-14.2,21.88-22.32
	c15.82-19.93,34.84-36.12,55.1-51.28c23.62-17.66,46.07-36.89,69.75-54.46c28.08-20.83,58.51-36.63,93.56-43.2
	c36.78-6.9,47.64,9.18,51.23,37.89c4.17,33.35-1.56,65.92-10.26,97.9c-7.75,28.47-16.94,56.54-25.36,84.83
	c-1.7,5.7-2.79,11.58-4.02,16.75c5.32,5.81,10.47,4.01,15.12,1.76c17.19-8.3,35.56-7.7,53.73-6.8c19.31,0.95,26.17,8.34,27.29,27.75
	c0.39,6.85-0.63,13.81-1.35,20.69c-0.8,7.71-1.98,15.38-2.96,22.83c6.98,3.98,10.11-1.77,13.61-4.47
	c18.25-14.08,40.63-19.19,60.96-28.69c2.27-1.06,5.07-1.12,7.65-1.4c7.23-0.79,11.7,2.45,12.73,9.56c0.5,3.41-0.14,6.99,0.41,10.38
	c0.96,5.93,4.91,9.67,10.8,8.86c11.13-1.54,22.15-3.9,33.15-6.22c13.5-2.85,26.73-7.41,41.33-6.71
	c5.91,6.31,11.43,12.94,17.72,18.74c12.75,11.75,27,15.63,42.75,5.83c16.91-10.52,34.16-20.59,50.38-32.08
	c38.94-27.58,77.37-55.88,116.02-83.88c4.17-3.02,8.38-5.87,13.7-3.82c0.7,7.6-4.78,9.95-8.54,13.04
	c-18.79,15.41-37.72,30.64-56.8,45.68c-22.51,17.74-44.89,35.67-67.96,52.66c-13.94,10.27-28.93,19.16-43.72,28.22
	c-17.65,10.81-34.76,8.47-51.11-3.31c-0.7-0.51-1.5-0.93-2.1-1.54c-17.97-18.22-39.12-20.58-62.54-12.99
	c-7.39,2.39-15.04,4.19-22.7,5.47c-12.13,2.02-22.37-1.02-28.82-12.61c-2.04-3.66-4.64-7.01-7.68-11.54
	c-31.04,9.15-59.26,20.29-80.27,46.02c-14.22,17.41-30.69,33-46.52,49.05c-2.8,2.84-7.25,4.38-11.21,5.66
	c-3.85,1.25-8.97-4.61-7.4-8.17c1.38-3.13,2.88-6.35,5-8.99c8.71-10.81,17.22-21.84,26.63-32.02c21.89-23.67,28.95-52.8,31.81-83.55
	c0.66-7.06-3.86-11.98-10.21-13.24c-7.5-1.49-15.45-2.07-23.04-1.32c-7.69,0.76-15.07,4.27-22.76,5.45
	c-24.65,3.79-39.36,19.09-50.24,40.31c-24.16,47.12-48.93,94.01-78.47,137.99c-18.39,27.39-40.33,52.16-66.36,72.89
	c-2.03,1.62-4.04,3.36-6.31,4.58c-13.93,7.52-26.77,0.41-27.74-15.33c-0.16-2.59-0.33-5.28,0.16-7.8
	c5.33-27.26,9.33-55.04,23.07-79.73c14.34-25.76,29.04-51.61,48.73-73.59c15.58-17.4,35.34-30.47,55.29-42.81
	c13.28-8.21,26.21-17.01,39.7-24.84c9.54-5.53,15.71-13.35,19.95-23.21c21.06-49,35.54-99.73,40.17-153.02
	c0.52-6.02,0.95-12.4-0.42-18.17c-2.64-11.19-2.38-22.21-1.82-33.56c0.79-16.23-11.26-25.68-27.5-21.28
	c-15.88,4.3-32.24,8.56-46.66,16.14c-21.39,11.25-43.39,22.17-60.74,39.88c-2.4,2.45-5.34,4.44-8.22,6.36
	c-45.89,30.59-83.79,69.93-121.73,109.46c-33.87,35.3-63.75,73.47-88.78,115.31c-17.34,28.99-34.43,58.08-47.83,89.42
	c-12.3,28.77-24.72,57.47-34.33,87.18c-16.68,51.55-25.18,104.54-23.88,158.92c0.32,13.32,3.34,25.79,10,37.33
	c3.71,6.43,8.98,9.99,16.74,10.62c10.7,0.86,20.86-0.31,30.26-5.56C473.17,869.04,479.6,864.84,488.39,859.48z M810.36,478.73
	c-13.35,0.54-19.75,6.91-26.7,11.84c-9.18,6.52-17.37,14.61-27.02,20.26c-14.69,8.61-24.79,21.28-34.96,34.25
	c-22.73,29-39.01,61.38-51.98,95.71c-4.7,12.45-2.88,23.49,2.54,35.58c11.16-1.61,17.1-9.63,22.79-16.77
	c19.46-24.39,39.7-48.37,56.88-74.33c19.12-28.9,35.32-59.74,52.52-89.88C806.91,491.07,807.88,485.88,810.36,478.73z"/>
<polygon points="826.1,241.91 826.58,241.9 826.38,242.3 "/>
</svg>
